<?xml version="1.0" encoding="UTF-8"?>
<svg id="Layer_2" data-name="Layer 2" xmlns="http://www.w3.org/2000/svg" xmlns:xlink="http://www.w3.org/1999/xlink" viewBox="0 0 1000 681.64">
  <defs>
    <style>
      .cls-1 {
        fill: url(#linear-gradient);
      }

      .cls-1, .cls-2, .cls-3, .cls-4, .cls-5, .cls-6, .cls-7, .cls-8, .cls-9, .cls-10, .cls-11, .cls-12 {
        stroke-width: 0px;
      }

      .cls-2 {
        fill: url(#linear-gradient-11);
      }

      .cls-3 {
        fill: url(#linear-gradient-12);
      }

      .cls-4 {
        fill: url(#linear-gradient-10);
      }

      .cls-5 {
        fill: url(#linear-gradient-4);
      }

      .cls-6 {
        fill: url(#linear-gradient-2);
      }

      .cls-7 {
        fill: url(#linear-gradient-3);
      }

      .cls-8 {
        fill: url(#linear-gradient-8);
      }

      .cls-9 {
        fill: url(#linear-gradient-9);
      }

      .cls-10 {
        fill: url(#linear-gradient-7);
      }

      .cls-11 {
        fill: url(#linear-gradient-5);
      }

      .cls-12 {
        fill: url(#linear-gradient-6);
      }
    </style>
    <linearGradient id="linear-gradient" x1="7.71" y1="535.69" x2="984.33" y2="535.69" gradientUnits="userSpaceOnUse">
      <stop offset="0" stop-color="#016293"/>
      <stop offset="1" stop-color="#0095c8"/>
    </linearGradient>
    <linearGradient id="linear-gradient-2" x1="7.71" x2="984.33" xlink:href="#linear-gradient"/>
    <linearGradient id="linear-gradient-3" x1="11.86" y1="535.34" x2="988.47" y2="535.34" xlink:href="#linear-gradient"/>
    <linearGradient id="linear-gradient-4" x1="11.86" y1="553.64" x2="988.47" y2="553.64" xlink:href="#linear-gradient"/>
    <linearGradient id="linear-gradient-5" x1="11.86" y1="553.64" x2="988.47" y2="553.64" xlink:href="#linear-gradient"/>
    <linearGradient id="linear-gradient-6" x1="11.86" y1="584.61" x2="988.47" y2="584.61" xlink:href="#linear-gradient"/>
    <linearGradient id="linear-gradient-7" x1="11.86" y1="553.64" x2="988.47" y2="553.64" xlink:href="#linear-gradient"/>
    <linearGradient id="linear-gradient-8" x1="409.17" y1="205.88" x2="542.38" y2="205.88" xlink:href="#linear-gradient"/>
    <linearGradient id="linear-gradient-9" x1="335.47" y1="330.01" x2="542.39" y2="330.01" xlink:href="#linear-gradient"/>
    <linearGradient id="linear-gradient-10" x1="624.13" y1="365.61" x2="624.13" y2="20.57" xlink:href="#linear-gradient"/>
    <linearGradient id="linear-gradient-11" x1="318.34" y1="57.52" x2="664.53" y2="57.52" xlink:href="#linear-gradient"/>
    <linearGradient id="linear-gradient-12" x1="351.65" y1="341.42" x2="351.65" y2="144.16" xlink:href="#linear-gradient"/>
  </defs>
  <g id="Layer_1-2" data-name="Layer 1">
    <g>
      <g>
        <path class="cls-1" d="M18.01,463.88c9.77-8.13,22.63-12.19,38.59-12.19,10.89,0,20.21,1.9,27.96,5.7,7.75,3.8,13.61,8.95,17.56,15.44,3.95,6.49,5.93,13.84,5.93,22.04,0,9.4-2.43,17.34-7.27,23.83-4.85,6.49-10.63,10.85-17.34,13.09v.89c8.65,2.68,15.4,7.46,20.25,14.32,4.84,6.86,7.27,15.66,7.27,26.4,0,8.95-2.05,16.93-6.15,23.94-4.1,7.01-10.14,12.49-18.12,16.44-7.98,3.95-17.56,5.93-28.75,5.93-16.86,0-30.57-4.25-41.16-12.75-10.59-8.5-16.19-21.03-16.78-37.58h19.71c5.42,0,10.44,3.27,12.23,8.38,1.24,3.56,3.24,6.62,5.98,9.18,4.7,4.4,11.15,6.6,19.35,6.6,7.61,0,13.46-2.12,17.56-6.38,4.1-4.25,6.15-9.73,6.15-16.44,0-8.95-2.83-15.36-8.5-19.24-5.67-3.88-14.47-5.82-26.4-5.82h0c-3.58,0-6.49-2.9-6.49-6.49v-19.24h6.49c21.18,0,31.77-7.08,31.77-21.25,0-6.41-1.9-11.41-5.7-14.99-3.8-3.58-9.28-5.37-16.44-5.37s-12.42,1.9-16.22,5.7c-1.9,1.9-3.4,4.05-4.5,6.46-2.17,4.75-6.72,7.97-11.94,7.97H2.24c.74-14.91,6-26.43,15.77-34.56Z"/>
        <path class="cls-6" d="M131.18,468.97v-17.29h43.1c6.87,0,12.44,5.57,12.44,12.44v155.56h-20.74c-6.87,0-12.44-5.57-12.44-12.44v-125.83h-9.91c-6.87,0-12.44-5.57-12.44-12.44Z"/>
        <path class="cls-7" d="M346.77,503.07c-4.03,0-7.89-1.83-10.3-5.06-3.32-4.45-7.4-8-12.25-10.66-6.57-3.6-14.24-5.4-22.99-5.4-9.7,0-18.3,2.19-25.81,6.57-7.51,4.38-13.37,10.64-17.6,18.77-4.22,8.14-6.34,17.52-6.34,28.16s2.15,20.5,6.45,28.63c4.3,8.14,10.28,14.39,17.95,18.77,7.66,4.38,16.58,6.57,26.75,6.57,12.51,0,22.76-3.32,30.74-9.97,7.98-6.65,13.22-15.92,15.72-27.81h-38.57c-9.8,0-17.74-7.94-17.74-17.74v-7.36h88.7v19.72c0,8.68-1.6,17.33-5.11,25.27-2.36,5.33-5.35,10.43-8.97,15.32-7.2,9.7-16.47,17.48-27.81,23.35-11.34,5.86-24.05,8.8-38.13,8.8-15.8,0-30.08-3.56-42.82-10.68-12.75-7.12-22.76-17.01-30.04-29.68-7.27-12.67-10.91-27.06-10.91-43.18s3.64-30.54,10.91-43.29c7.27-12.75,17.28-22.68,30.04-29.8,12.75-7.12,26.94-10.68,42.59-10.68,18.46,0,34.49,4.5,48.1,13.49,13.61,9,23,21.63,28.16,37.89h-30.72Z"/>
        <path class="cls-5" d="M405.29,517.15c5.24-10.17,12.36-15.88,21.35-21.35,8.99-5.47,19.04-8.21,30.15-8.21,9.7,0,18.19,1.96,25.46,5.86,7.28,3.91,13.1,6.73,17.48,12.67v-18.54h19.75c7.36,0,13.33,5.97,13.33,13.33v118.78h-19.75c-7.36,0-13.33-8.08-13.33-15.44v-5.68c-4.22,6.1-10.05,11.15-17.48,15.13-7.43,3.99-16,5.98-25.69,5.98-10.95,0-20.92-2.82-29.92-8.45-9-5.63-16.11-13.57-21.35-23.82-5.24-10.24-7.86-22.02-7.86-35.31s2.62-24.79,7.86-34.96ZM495.04,532.05c-3.13-5.71-7.35-10.09-12.67-13.14-5.32-3.05-11.03-4.58-17.13-4.58s-11.73,1.49-16.9,4.46c-5.16,2.97-9.35,7.32-12.55,13.02-3.21,5.71-4.81,12.48-4.81,20.3s1.6,14.67,4.81,20.53c3.2,5.86,7.43,10.36,12.67,13.49,5.24,3.13,10.83,4.69,16.78,4.69s11.81-1.53,17.13-4.58c5.32-3.05,9.54-7.43,12.67-13.14,3.13-5.71,4.69-12.55,4.69-20.53s-1.57-14.82-4.69-20.53Z"/>
        <path class="cls-11" d="M687.69,500.18l-.1,119.51h-20.49c-6.96,0-12.5-7.75-12.5-14.71v-3.83c-4.22,5.63-9.74,10.05-16.54,13.26-6.81,3.2-14.2,4.81-22.17,4.81-10.17,0-19.16-2.15-26.98-6.45-7.82-4.3-13.96-10.64-18.42-19.01-4.46-8.37-6.69-18.34-6.69-29.92v-76.26h20.26c6.96,0,12.59,5.64,12.59,12.59v58.97c0,10.33,2.58,18.27,7.74,23.82,5.16,5.55,12.2,8.33,21.12,8.33s16.19-2.78,21.35-8.33c5.16-5.55,7.74-13.49,7.74-23.82v-71.57h20.49c6.96,0,12.59,5.64,12.59,12.59Z"/>
        <path class="cls-12" d="M796.56,493.34c7.35,3.84,13.14,6.69,17.37,12.79v-18.54h19.6c7.45,0,13.48,6.04,13.48,13.48v117.45c0,12.04-2.43,22.8-7.27,32.26-4.85,9.46-12.12,16.97-21.82,22.53-9.7,5.55-21.43,8.33-35.2,8.33-18.46,0-33.59-4.3-45.4-12.91-11.81-8.6-18.5-20.34-20.06-35.2h24.07c4.6,0,8.86,2.36,11.35,6.23,2.01,3.12,4.78,5.78,8.33,7.96,5.71,3.52,12.63,5.28,20.77,5.28,9.54,0,17.28-2.86,23.23-8.56,5.94-5.71,8.92-14.35,8.92-25.93v-20.18c-4.22,6.1-10.05,11.19-17.48,15.25-7.43,4.07-15.92,6.1-25.46,6.1-10.95,0-20.96-2.82-30.03-8.45-9.07-5.63-16.23-13.57-21.47-23.82-5.24-10.24-7.86-22.02-7.86-35.31s2.62-24.79,7.86-34.96c5.24-10.17,12.36-15.88,21.35-21.35,8.99-5.47,19.04-8.21,30.15-8.21,9.7,0,18.22,1.92,25.58,5.75ZM809.23,532.05c-3.13-5.71-7.35-10.09-12.67-13.14-5.32-3.05-11.03-4.58-17.13-4.58s-11.73,1.49-16.9,4.46c-5.16,2.97-9.35,7.32-12.55,13.02-3.21,5.71-4.81,12.48-4.81,20.3s1.6,14.67,4.81,20.53c3.2,5.86,7.43,10.36,12.67,13.49,5.24,3.13,10.83,4.69,16.78,4.69s11.81-1.53,17.13-4.58c5.32-3.05,9.54-7.43,12.67-13.14,3.13-5.71,4.69-12.55,4.69-20.53s-1.57-14.82-4.69-20.53Z"/>
        <path class="cls-10" d="M987.32,562.44h-83.29c.78,9.39,4.07,16.74,9.85,22.06,5.79,5.32,12.91,7.98,21.35,7.98,10.11,0,17.81-3.6,23.08-10.8,2.32-3.16,6.1-4.92,10.02-4.92h28.37c-3.75,12.52-10.95,22.8-21.59,30.86-10.64,8.06-23.7,12.08-39.19,12.08-12.52,0-23.74-2.78-33.67-8.33-9.94-5.55-17.68-13.41-23.23-23.58-5.55-10.17-8.33-21.9-8.33-35.2s2.73-25.26,8.21-35.43c5.47-10.17,12.96-15.88,22.82-21.35,9.86-5.47,21.2-8.21,34.02-8.21s23.42,2.66,33.2,7.98c9.77,5.32,17.54,10.76,22.94,20.53,5.4,9.78,8.1,21,8.1,33.67,0,.05,0,.09,0,.14,0,6.95-5.73,12.53-12.68,12.53ZM965.98,540.38c-.16-8.45-3.21-13.33-9.15-18.42-5.95-5.08-13.22-7.63-21.82-7.63-8.14,0-14.98,2.46-20.53,7.39-5.55,4.93-8.96,9.89-10.21,18.65h61.71Z"/>
      </g>
      <g>
        <rect class="cls-8" x="409.17" y="139.27" width="133.22" height="133.22" rx="24.22" ry="24.22"/>
        <path class="cls-9" d="M542.39,302.76v36.33c0,13.38-10.84,24.22-24.22,24.22h-182.69l49.48-49.48,10.03-10.03c4.54-4.54,10.7-7.09,17.13-7.09h124.22c3.34,0,6.06,2.71,6.06,6.06Z"/>
        <path class="cls-4" d="M681.66,17.13v346.19h-90.83c-13.38,0-24.22-10.84-24.22-24.22v-196.88c0-6.42,2.55-12.58,7.09-17.13l10.03-10.03,97.92-97.92Z"/>
        <path class="cls-2" d="M664.53,0l-107.96,107.96c-4.54,4.54-10.7,7.09-17.13,7.09h-196.88c-13.38,0-24.22-10.84-24.22-24.22V0h346.19Z"/>
        <path class="cls-3" d="M384.95,145.33v124.22c0,6.42-2.55,12.58-7.09,17.13l-59.51,59.51v-182.69c0-13.38,10.84-24.22,24.22-24.22h36.33c3.34,0,6.06,2.71,6.06,6.06Z"/>
      </g>
    </g>
  </g>
</svg>